<?xml version="1.0" encoding="UTF-8" standalone="no" ?>
<!DOCTYPE svg PUBLIC "-//W3C//DTD SVG 1.1//EN" "http://www.w3.org/Graphics/SVG/1.1/DTD/svg11.dtd">
<svg xmlns="http://www.w3.org/2000/svg" xmlns:xlink="http://www.w3.org/1999/xlink" version="1.1" width="1024" height="1024" viewBox="0 0 1024 1024" xml:space="preserve">
<desc>Created with Fabric.js 3.1.0</desc>
<defs>
</defs>
<g transform="matrix(1 0 0 1 512 512)" id="background-logo"  >
<rect style="stroke: none; stroke-width: 1; stroke-dasharray: none; stroke-linecap: butt; stroke-dashoffset: 0; stroke-linejoin: miter; stroke-miterlimit: 4; fill: rgb(255,255,255); fill-rule: nonzero; opacity: 1;"  paint-order="stroke"  x="-512" y="-512" rx="0" ry="0" width="1024" height="1024" />
</g>
<g transform="matrix(1.5745007680491552 0 0 1.5745007680491552 512 443.63113412058374)" style="" id="logo-logo"  >
	<g transform="matrix(0.157 0 0 -0.157 1.421085e-14 -0.7439325000000565)" id="logo-logo"  >
<linearGradient id="SVGID_20076" gradientUnits="userSpaceOnUse" gradientTransform="matrix(1e-7 -1699.48 -1699.48 -1e-7 1993.43 3191.41)"  x1="0" y1="2.2737367544323206e-13" x2="1" y2="2.2737367544323206e-13">
<stop offset="0%" style="stop-color:rgb(241,125,20);stop-opacity: 1"/>
<stop offset="100%" style="stop-color:rgb(190,38,40);stop-opacity: 1"/>
</linearGradient>
<path style="stroke: none; stroke-width: 1; stroke-dasharray: none; stroke-linecap: butt; stroke-dashoffset: 0; stroke-linejoin: miter; stroke-miterlimit: 4; fill: url(#SVGID_20076); fill-rule: evenodd; opacity: 1;"  paint-order="stroke"  transform=" translate(-1993.432945647236, -2341.67)" d="m 2598.25 2009.77 c 0 -286 -264.85 -517.84 -591.55 -517.84 c -37.93 0 -74.97 3.24 -110.92 9.22 c -40.04 4.98 -82.57 16.53 -125.56 33.92 c -70.44 26.95 -133.72 65.51 -186.68 113 c -25.55 21.25 -50.03 44.4 -72.82 69.37 c -95.57 104.68 -186.39 330.13 -60.4 587.22 c 64.09 128.02 148.1 226.64 222.82 350.79 c 78.27 130.1 155.69 260.1 167.59 408.21 c 3.19 39.6 0.92 79.32 1.19 127.75 c 106.39 -80.65 146.61 -177.87 135.15 -294.58 c -13.76 -140.04 -60.25 -265.12 -132.1 -389 c 51.42 12.78 105.63 19.76 161.73 19.76 c 36.66 0 72.5 -3.06 107.32 -8.66 c -38.78 66.56 -68.76 135.25 -76.63 209.23 c -10.15 95.41 29.07 175.26 131.6 242.01 c -0.08 -39.62 -2.53 -72.14 0.24 -104.52 c 10.33 -121.1 83.59 -226.9 157.66 -332.79 c 70.72 -101.04 150.49 -181.12 211 -285.42 c 16.1 -28.36 27.11 -56.85 34.22 -85.09 c 16.96 -48.24 26.14 -99.48 26.14 -152.58" stroke-linecap="round" />
</g>
	<g transform="matrix(0.157 0 0 -0.157 -1.3972000000000122 30.912267500000056)" id="logo-logo"  >
<path style="stroke: none; stroke-width: 1; stroke-dasharray: none; stroke-linecap: butt; stroke-dashoffset: 0; stroke-linejoin: miter; stroke-miterlimit: 4; fill: rgb(255,255,255); fill-rule: nonzero; opacity: 1;"  paint-order="stroke"  transform=" translate(-1984.5349999999999, -2140.075)" d="m 2401.92 1985.6 v -58.24 c -3.38 -10.77 -0.46 -25.79 -4.63 -37.08 c -19.13 -190.66 -161.7 -363.84 -327.11 -397.2 c -16.83 -7.58 -36.72 -7.43 -54.01 -10.59 h -63.26 c -17.29 3.16 -37.2 3.01 -54.02 10.59 c -178.36 35.13 -323.64 231.78 -331.74 436.03 v 60.03 c 5.65 39.9 12.84 81.37 26.61 119.52 c 13.96 30.71 28.32 61.25 44.76 90.02 l 52.46 81.21 c 117.35 159.58 220.11 331 297.41 517.77 l 21.3 -51.63 c 63.88 -178.03 164.64 -335.68 274.66 -483.8 c 11.88 -19.94 24.68 -39.37 38.57 -58.26 c 20.66 -36.36 40.89 -73.08 57.09 -112.97 c 11.11 -33.72 18.06 -70.09 21.91 -105.4" stroke-linecap="round" />
</g>
</g>
<g transform="matrix(1.5745007680491552 0 0 1.5745007680491552 512 725.2646902643149)"  >
<filter id="SVGID_20077" y="-20%" height="140%" x="-20%" width="140%" >
	<feGaussianBlur in="SourceAlpha" stdDeviation="0"></feGaussianBlur>
	<feOffset dx="0" dy="0" result="oBlur" ></feOffset>
	<feFlood flood-color="rgb(0,0,0)" flood-opacity="1"/>
	<feComposite in2="oBlur" operator="in" />
	<feMerge>
		<feMergeNode></feMergeNode>
		<feMergeNode in="SourceGraphic"></feMergeNode>
	</feMerge>
</filter>
<path style="stroke: none; stroke-width: 1; stroke-dasharray: none; stroke-linecap: butt; stroke-dashoffset: 0; stroke-linejoin: miter; stroke-miterlimit: 4; fill: rgb(215,49,31); fill-rule: nonzero; opacity: 1;filter: url(#SVGID_20077);"  paint-order="stroke"  transform=" translate(-296.515, 17.295)" d="M 0.28 0.09 L 0 0 Q 0.39 -0.62 0.92 -2 Q 1.45 -3.37 1.81 -4.5 Q 2.18 -5.62 2.96 -8.12 L 2.96 -8.12 Q 3.6 -10.17 4.9 -14.26 Q 6.2 -18.36 6.86 -20.4 L 6.86 -20.4 Q 7.69 -23.04 8.81 -25.37 Q 9.94 -27.7 10.87 -29.11 Q 11.8 -30.52 12.85 -31.73 Q 13.91 -32.93 14.38 -33.35 Q 14.85 -33.76 15.28 -34.1 L 15.28 -34.1 Q 15.35 -34.15 15.38 -34.17 L 15.38 -34.17 L 15.63 -33.96 Q 15.88 -33.76 16.2 -33.46 Q 16.52 -33.16 16.99 -32.69 Q 17.46 -32.22 17.99 -31.58 Q 18.52 -30.94 19.12 -30.14 Q 19.71 -29.35 20.33 -28.32 Q 20.95 -27.29 21.56 -26.12 Q 22.17 -24.95 22.77 -23.47 Q 23.36 -21.99 23.87 -20.4 L 23.87 -20.4 Q 24.69 -17.69 27.77 -8.12 L 27.77 -8.12 Q 28.55 -5.62 28.92 -4.5 Q 29.28 -3.37 29.81 -2 Q 30.34 -0.62 30.73 0 L 30.73 0 Q 29.74 0.32 28.8 0.32 L 28.8 0.32 Q 27.98 0.32 27.26 0.08 Q 26.55 -0.16 26.04 -0.5 Q 25.52 -0.85 25.04 -1.47 Q 24.56 -2.09 24.26 -2.62 Q 23.96 -3.14 23.61 -4.02 Q 23.27 -4.89 23.1 -5.45 Q 22.93 -6.01 22.63 -6.95 L 22.63 -6.95 Q 22.58 -7.11 22.56 -7.18 L 22.56 -7.18 L 21.71 -9.96 L 9.02 -9.96 L 8.17 -7.18 Q 7.14 -3.83 6.4 -2.52 L 6.4 -2.52 Q 4.8 0.32 1.93 0.32 L 1.93 0.32 Q 1.51 0.32 1.03 0.24 Q 0.55 0.16 0.28 0.09 L 0.28 0.09 Z M 11.75 -19.19 L 10.19 -13.95 L 20.54 -13.95 L 18.98 -19.19 Q 18.29 -21.48 17.38 -23.6 Q 16.48 -25.73 15.93 -26.71 L 15.93 -26.71 L 15.38 -27.68 Q 15.08 -27.24 14.61 -26.39 Q 14.14 -25.54 13.3 -23.53 Q 12.46 -21.53 11.75 -19.19 L 11.75 -19.19 Z M 33.55 -6.68 L 33.55 -6.68 L 33.55 -35.53 Q 33.94 -35.53 34.48 -35.47 Q 35.02 -35.41 36.06 -35.19 Q 37.11 -34.97 37.8 -34.38 Q 38.49 -33.78 38.49 -32.86 L 38.49 -32.86 L 38.49 -8.17 Q 38.49 -6.98 38.61 -5.92 Q 38.74 -4.87 39.05 -3.71 Q 39.36 -2.55 40.07 -1.86 Q 40.78 -1.17 41.81 -1.17 L 41.81 -1.17 Q 40.48 0.32 38.49 0.32 L 38.49 0.32 Q 36.08 0.32 34.81 -1.68 Q 33.55 -3.67 33.55 -6.68 Z M 58.45 -2.69 L 58.45 -2.69 L 58.45 -33.23 L 80.35 -33.23 Q 80.35 -33.07 80.32 -32.81 Q 80.3 -32.54 80.15 -31.86 Q 80 -31.19 79.71 -30.66 Q 79.43 -30.13 78.82 -29.71 Q 78.21 -29.28 77.38 -29.28 L 77.38 -29.28 L 63.57 -29.28 L 63.57 -19.87 L 73.8 -19.87 Q 75.41 -19.87 76.58 -20.06 Q 77.75 -20.24 78.1 -20.42 L 78.1 -20.42 L 78.46 -20.63 Q 78.46 -15.93 74.56 -15.93 L 74.56 -15.93 L 63.57 -15.93 L 63.57 -3.95 L 80.35 -3.95 Q 80.35 -3.65 80.28 -3.2 Q 80.21 -2.75 79.96 -1.93 Q 79.7 -1.1 79.04 -0.55 Q 78.37 0 77.38 0 L 77.38 0 L 62.95 0 Q 62.77 0 62.47 -0.01 Q 62.17 -0.02 61.39 -0.17 Q 60.61 -0.32 60.01 -0.57 Q 59.42 -0.83 58.93 -1.38 Q 58.45 -1.93 58.45 -2.69 Z M 83.86 -16.87 L 83.86 -16.87 Q 83.86 -20.63 86.37 -22.56 Q 88.88 -24.49 93.72 -24.49 L 93.72 -24.49 Q 97.9 -24.49 100.35 -23.32 Q 102.79 -22.15 102.79 -19.83 L 102.79 -19.83 Q 102.79 -18.02 101.18 -15.79 L 101.18 -15.79 Q 101.18 -18.02 99.23 -19.21 Q 97.28 -20.4 93.95 -20.4 L 93.95 -20.4 Q 91.2 -20.4 90.04 -19.6 Q 88.88 -18.8 88.88 -17.01 L 88.88 -17.01 Q 88.88 -16.23 89.4 -15.73 Q 89.92 -15.24 90.79 -15.01 Q 91.66 -14.78 92.8 -14.64 Q 93.93 -14.5 95.18 -14.37 Q 96.43 -14.23 97.67 -14.01 Q 98.91 -13.79 100.05 -13.29 Q 101.18 -12.78 102.06 -12.01 Q 102.93 -11.25 103.44 -9.91 Q 103.96 -8.58 103.96 -6.82 L 103.96 -6.82 Q 103.96 -3.33 101.38 -1.38 Q 98.8 0.57 93.72 0.57 L 93.72 0.57 Q 89.39 0.57 86.76 -0.68 Q 84.13 -1.93 84.13 -4.31 L 84.13 -4.31 Q 84.13 -6.17 85.97 -8.42 L 85.97 -8.42 Q 86.01 -6.66 87.13 -5.5 Q 88.24 -4.34 89.89 -3.89 Q 91.54 -3.44 93.72 -3.44 L 93.72 -3.44 Q 96.04 -3.44 97.49 -4.36 Q 98.93 -5.28 98.93 -7.05 L 98.93 -7.05 Q 98.93 -7.99 98.42 -8.59 Q 97.9 -9.2 97.03 -9.5 Q 96.16 -9.8 95.02 -9.96 Q 93.89 -10.12 92.63 -10.25 Q 91.38 -10.37 90.14 -10.56 Q 88.91 -10.74 87.77 -11.16 Q 86.63 -11.59 85.76 -12.24 Q 84.89 -12.9 84.37 -14.08 Q 83.86 -15.26 83.86 -16.87 Z M 108.64 -2.34 L 108.64 -2.34 L 108.64 -24.3 Q 110.36 -23.41 112.27 -23.41 L 112.27 -23.41 Q 113.37 -23.41 115.65 -23.9 Q 117.94 -24.4 119.27 -24.4 L 119.27 -24.4 Q 120.71 -24.4 122 -24.19 Q 123.28 -23.98 124.53 -23.47 Q 125.78 -22.95 126.68 -22.13 Q 127.57 -21.32 128.13 -20.01 Q 128.68 -18.7 128.68 -17.01 L 128.68 -17.01 L 128.68 0.32 Q 128.47 0.32 128.14 0.3 Q 127.8 0.28 126.96 0.13 Q 126.11 -0.02 125.45 -0.28 Q 124.8 -0.53 124.27 -1.07 Q 123.74 -1.61 123.74 -2.34 L 123.74 -2.34 L 123.74 -16.32 Q 123.74 -18.41 122.54 -19.47 Q 121.33 -20.54 118.6 -20.54 L 118.6 -20.54 Q 117.32 -20.54 116.05 -20.34 Q 114.79 -20.15 114.17 -19.94 L 114.17 -19.94 L 113.58 -19.74 L 113.58 0.32 Q 113.37 0.32 113.04 0.31 Q 112.7 0.3 111.85 0.15 Q 111.01 0 110.35 -0.24 Q 109.7 -0.48 109.17 -1.03 Q 108.64 -1.58 108.64 -2.34 Z M 133.86 -6.59 L 133.86 -6.59 Q 133.86 -8.19 134.41 -9.42 Q 134.96 -10.65 135.89 -11.38 Q 136.82 -12.12 138.03 -12.67 Q 139.23 -13.22 140.51 -13.52 Q 141.78 -13.82 143.08 -14.14 Q 144.37 -14.46 145.44 -14.76 Q 146.51 -15.05 147.33 -15.58 Q 148.16 -16.11 148.48 -16.82 L 148.48 -16.82 Q 148.48 -18.54 147.38 -19.52 Q 146.28 -20.49 143.5 -20.49 L 143.5 -20.49 Q 140.17 -20.49 138.12 -19.21 Q 136.07 -17.92 136.07 -15.33 L 136.07 -15.33 Q 134.53 -17.46 134.53 -19.32 L 134.53 -19.32 Q 134.53 -20.63 135.33 -21.65 Q 136.13 -22.67 137.47 -23.25 Q 138.8 -23.82 140.32 -24.11 Q 141.85 -24.4 143.5 -24.4 L 143.5 -24.4 Q 148.3 -24.4 150.86 -22.35 Q 153.42 -20.31 153.42 -16.59 L 153.42 -16.59 L 153.42 0.37 Q 151.99 -0.28 150.04 -0.28 L 150.04 -0.28 Q 148.96 -0.28 146.67 0.15 Q 144.37 0.57 143 0.57 L 143 0.57 Q 141.18 0.57 139.62 0.2 Q 138.06 -0.18 136.73 -0.99 Q 135.4 -1.79 134.63 -3.22 Q 133.86 -4.66 133.86 -6.59 Z M 138.75 -6.59 L 138.75 -6.59 Q 138.75 -4.98 140 -4.02 Q 141.25 -3.05 143.69 -3.05 L 143.69 -3.05 Q 144.99 -3.05 146.23 -3.32 Q 147.47 -3.58 148.05 -3.86 L 148.05 -3.86 L 148.62 -4.13 L 148.62 -12.6 Q 148.39 -11.96 147.55 -11.52 Q 146.71 -11.08 145.62 -10.88 Q 144.53 -10.67 143.32 -10.36 Q 142.1 -10.05 141.09 -9.68 Q 140.08 -9.32 139.42 -8.53 Q 138.75 -7.73 138.75 -6.59 Z M 158.79 -7.23 L 158.79 -7.23 L 158.79 -16.64 Q 158.79 -20.15 161.34 -22.27 Q 163.9 -24.4 167.58 -24.4 L 167.58 -24.4 Q 168.93 -24.4 170.11 -24.17 Q 171.29 -23.94 172.02 -23.61 Q 172.74 -23.29 173.28 -22.97 Q 173.82 -22.65 174.05 -22.42 L 174.05 -22.42 L 174.28 -22.19 Q 173.86 -23.5 173.86 -25.7 L 173.86 -25.7 L 173.86 -35.43 Q 174.09 -35.43 174.33 -35.42 Q 174.57 -35.41 175.24 -35.33 Q 175.91 -35.25 176.45 -35.04 Q 176.98 -34.84 177.56 -34.53 Q 178.13 -34.22 178.46 -33.63 Q 178.8 -33.05 178.8 -32.29 L 178.8 -32.29 L 178.8 0.41 Q 177.42 -0.23 175.33 -0.23 L 175.33 -0.23 Q 174.23 -0.23 172.03 0.17 Q 169.82 0.57 168.75 0.57 L 168.75 0.57 Q 164 0.57 161.39 -1.46 Q 158.79 -3.49 158.79 -7.23 Z M 163.72 -15.93 L 163.72 -7.94 Q 163.72 -5.44 164.94 -4.31 Q 166.15 -3.19 169.3 -3.19 L 169.3 -3.19 Q 170.56 -3.19 171.69 -3.41 Q 172.83 -3.63 173.36 -3.83 L 173.36 -3.83 L 173.86 -4.04 L 173.86 -16.41 Q 173.86 -18.22 172.12 -19.43 Q 170.38 -20.63 168.17 -20.63 L 168.17 -20.63 Q 166.13 -20.63 164.92 -19.46 Q 163.72 -18.29 163.72 -15.93 L 163.72 -15.93 Z M 195.27 0.09 L 195 0 Q 195.39 -0.62 195.92 -2 Q 196.45 -3.37 196.81 -4.5 Q 197.18 -5.62 197.96 -8.12 L 197.96 -8.12 Q 198.6 -10.17 199.9 -14.26 Q 201.2 -18.36 201.86 -20.4 L 201.86 -20.4 Q 202.69 -23.04 203.81 -25.37 Q 204.94 -27.7 205.87 -29.11 Q 206.8 -30.52 207.85 -31.73 Q 208.91 -32.93 209.38 -33.35 Q 209.85 -33.76 210.28 -34.1 L 210.28 -34.1 Q 210.35 -34.15 210.38 -34.17 L 210.38 -34.17 L 210.63 -33.96 Q 210.88 -33.76 211.2 -33.46 Q 211.52 -33.16 211.99 -32.69 Q 212.46 -32.22 212.99 -31.58 Q 213.52 -30.94 214.12 -30.14 Q 214.71 -29.35 215.33 -28.32 Q 215.95 -27.29 216.56 -26.12 Q 217.17 -24.95 217.77 -23.47 Q 218.36 -21.99 218.87 -20.4 L 218.87 -20.4 Q 219.69 -17.69 222.77 -8.12 L 222.77 -8.12 Q 223.55 -5.62 223.92 -4.5 Q 224.28 -3.37 224.81 -2 Q 225.34 -0.62 225.73 0 L 225.73 0 Q 224.74 0.32 223.8 0.32 L 223.8 0.32 Q 222.97 0.32 222.26 0.08 Q 221.55 -0.16 221.04 -0.5 Q 220.52 -0.85 220.04 -1.47 Q 219.56 -2.09 219.26 -2.62 Q 218.96 -3.14 218.61 -4.02 Q 218.27 -4.89 218.1 -5.45 Q 217.93 -6.01 217.63 -6.95 L 217.63 -6.95 Q 217.58 -7.11 217.56 -7.18 L 217.56 -7.18 L 216.71 -9.96 L 204.02 -9.96 L 203.17 -7.18 Q 202.14 -3.83 201.4 -2.52 L 201.4 -2.52 Q 199.8 0.32 196.93 0.32 L 196.93 0.32 Q 196.51 0.32 196.03 0.24 Q 195.55 0.16 195.27 0.09 L 195.27 0.09 Z M 206.75 -19.19 L 205.19 -13.95 L 215.54 -13.95 L 213.98 -19.19 Q 213.29 -21.48 212.38 -23.6 Q 211.48 -25.73 210.93 -26.71 L 210.93 -26.71 L 210.38 -27.68 Q 210.08 -27.24 209.61 -26.39 Q 209.14 -25.54 208.3 -23.53 Q 207.46 -21.53 206.75 -19.19 L 206.75 -19.19 Z M 228.55 -6.68 L 228.55 -6.68 L 228.55 -35.53 Q 228.94 -35.53 229.48 -35.47 Q 230.02 -35.41 231.06 -35.19 Q 232.11 -34.97 232.8 -34.38 Q 233.49 -33.78 233.49 -32.86 L 233.49 -32.86 L 233.49 -8.17 Q 233.49 -6.98 233.61 -5.92 Q 233.74 -4.87 234.05 -3.71 Q 234.36 -2.55 235.07 -1.86 Q 235.78 -1.17 236.81 -1.17 L 236.81 -1.17 Q 235.48 0.32 233.49 0.32 L 233.49 0.32 Q 231.08 0.32 229.81 -1.68 Q 228.55 -3.67 228.55 -6.68 Z M 253.45 -2.2 L 253.45 -2.2 L 253.45 -33.23 L 273.94 -33.23 Q 273.94 -33.07 273.92 -32.81 Q 273.9 -32.54 273.75 -31.86 Q 273.6 -31.19 273.31 -30.66 Q 273.03 -30.13 272.42 -29.71 Q 271.81 -29.28 270.98 -29.28 L 270.98 -29.28 L 258.57 -29.28 L 258.57 -19.87 L 266.92 -19.87 Q 268.32 -19.87 269.48 -20.03 Q 270.64 -20.2 271.12 -20.33 L 271.12 -20.33 L 271.58 -20.49 Q 271.58 -15.93 267.68 -15.93 L 267.68 -15.93 L 258.57 -15.93 L 258.57 0.46 Q 258.36 0.46 258.02 0.45 Q 257.67 0.44 256.79 0.29 Q 255.91 0.14 255.23 -0.1 Q 254.55 -0.34 254 -0.9 Q 253.45 -1.45 253.45 -2.2 Z M 274.06 -6.59 L 274.06 -6.59 Q 274.06 -8.19 274.61 -9.42 Q 275.16 -10.65 276.09 -11.38 Q 277.02 -12.12 278.22 -12.67 Q 279.43 -13.22 280.7 -13.52 Q 281.98 -13.82 283.27 -14.14 Q 284.57 -14.46 285.64 -14.76 Q 286.7 -15.05 287.53 -15.58 Q 288.36 -16.11 288.68 -16.82 L 288.68 -16.82 Q 288.68 -18.54 287.58 -19.52 Q 286.48 -20.49 283.7 -20.49 L 283.7 -20.49 Q 280.37 -20.49 278.32 -19.21 Q 276.26 -17.92 276.26 -15.33 L 276.26 -15.33 Q 274.73 -17.46 274.73 -19.32 L 274.73 -19.32 Q 274.73 -20.63 275.53 -21.65 Q 276.33 -22.67 277.66 -23.25 Q 278.99 -23.82 280.52 -24.11 Q 282.05 -24.4 283.7 -24.4 L 283.7 -24.4 Q 288.49 -24.4 291.05 -22.35 Q 293.61 -20.31 293.61 -16.59 L 293.61 -16.59 L 293.61 0.37 Q 292.19 -0.28 290.24 -0.28 L 290.24 -0.28 Q 289.16 -0.28 286.87 0.15 Q 284.57 0.57 283.19 0.57 L 283.19 0.57 Q 281.38 0.57 279.82 0.2 Q 278.26 -0.18 276.93 -0.99 Q 275.6 -1.79 274.83 -3.22 Q 274.06 -4.66 274.06 -6.59 Z M 278.95 -6.59 L 278.95 -6.59 Q 278.95 -4.98 280.2 -4.02 Q 281.45 -3.05 283.88 -3.05 L 283.88 -3.05 Q 285.19 -3.05 286.43 -3.32 Q 287.67 -3.58 288.24 -3.86 L 288.24 -3.86 L 288.82 -4.13 L 288.82 -12.6 Q 288.59 -11.96 287.75 -11.52 Q 286.91 -11.08 285.82 -10.88 Q 284.73 -10.67 283.51 -10.36 Q 282.3 -10.05 281.29 -9.68 Q 280.28 -9.32 279.61 -8.53 Q 278.95 -7.73 278.95 -6.59 Z M 299.44 -2.34 L 299.44 -2.34 L 299.44 -24.3 Q 301.16 -23.41 303.07 -23.41 L 303.07 -23.41 Q 304.17 -23.41 306.45 -23.9 Q 308.74 -24.4 310.07 -24.4 L 310.07 -24.4 Q 311.51 -24.4 312.8 -24.19 Q 314.08 -23.98 315.33 -23.47 Q 316.58 -22.95 317.48 -22.13 Q 318.37 -21.32 318.93 -20.01 Q 319.48 -18.7 319.48 -17.01 L 319.48 -17.01 L 319.48 0.32 Q 319.27 0.32 318.94 0.3 Q 318.6 0.28 317.75 0.13 Q 316.91 -0.02 316.25 -0.28 Q 315.6 -0.53 315.07 -1.07 Q 314.54 -1.61 314.54 -2.34 L 314.54 -2.34 L 314.54 -16.32 Q 314.54 -18.41 313.34 -19.47 Q 312.13 -20.54 309.4 -20.54 L 309.4 -20.54 Q 308.12 -20.54 306.85 -20.34 Q 305.59 -20.15 304.97 -19.94 L 304.97 -19.94 L 304.38 -19.74 L 304.38 0.32 Q 304.17 0.32 303.84 0.31 Q 303.5 0.3 302.65 0.15 Q 301.81 0 301.15 -0.24 Q 300.5 -0.48 299.97 -1.03 Q 299.44 -1.58 299.44 -2.34 Z M 325.56 -2.34 L 325.56 -2.34 L 325.56 -24.17 Q 325.81 -24.17 326.15 -24.15 Q 326.5 -24.14 327.35 -23.99 Q 328.2 -23.84 328.83 -23.59 Q 329.46 -23.34 329.98 -22.79 Q 330.49 -22.24 330.49 -21.48 L 330.49 -21.48 L 330.49 0.32 Q 330.29 0.32 329.95 0.31 Q 329.62 0.3 328.77 0.15 Q 327.92 0 327.27 -0.24 Q 326.61 -0.48 326.09 -1.03 Q 325.56 -1.58 325.56 -2.34 Z M 325.56 -29.24 L 325.56 -29.24 L 325.56 -32.86 L 329.09 -32.86 Q 329.53 -32.86 329.99 -32.47 Q 330.45 -32.08 330.45 -31.67 L 330.45 -31.67 L 330.45 -28.11 L 326.98 -28.11 Q 326.43 -28.11 325.99 -28.45 Q 325.56 -28.78 325.56 -29.24 Z M 349.75 -10.19 L 349.75 -10.19 L 349.75 -23.04 Q 349.75 -28.2 353.12 -31 Q 356.49 -33.8 363.29 -33.8 Q 370.08 -33.8 373.48 -31 Q 376.87 -28.2 376.87 -23.04 L 376.87 -23.04 L 376.87 -10.19 Q 376.87 -5.03 373.48 -2.23 Q 370.08 0.57 363.29 0.57 Q 356.49 0.57 353.12 -2.23 Q 349.75 -5.03 349.75 -10.19 Z M 354.86 -22.42 L 354.86 -10.81 Q 354.86 -9.32 355.06 -8.24 Q 355.25 -7.16 355.79 -6.2 Q 356.33 -5.23 357.26 -4.64 Q 358.19 -4.04 359.68 -3.71 Q 361.17 -3.37 363.24 -3.37 L 363.24 -3.37 Q 365.86 -3.37 367.57 -3.86 Q 369.28 -4.34 370.18 -5.37 Q 371.09 -6.4 371.42 -7.67 Q 371.75 -8.93 371.75 -10.81 L 371.75 -10.81 L 371.75 -22.42 Q 371.75 -24.3 371.42 -25.57 Q 371.09 -26.83 370.18 -27.85 Q 369.28 -28.87 367.57 -29.35 Q 365.86 -29.83 363.24 -29.83 L 363.24 -29.83 Q 360.67 -29.83 358.98 -29.35 Q 357.3 -28.87 356.41 -27.85 Q 355.53 -26.83 355.2 -25.57 Q 354.86 -24.3 354.86 -22.42 L 354.86 -22.42 Z M 382.95 -2.34 L 382.95 -2.34 L 382.95 -24.17 Q 383.21 -24.17 383.55 -24.15 Q 383.89 -24.14 384.74 -23.99 Q 385.59 -23.84 386.22 -23.59 Q 386.85 -23.34 387.37 -22.79 Q 387.89 -22.24 387.89 -21.48 L 387.89 -21.48 L 387.89 0.32 Q 387.68 0.32 387.35 0.31 Q 387.02 0.3 386.17 0.15 Q 385.32 0 384.66 -0.24 Q 384.01 -0.48 383.48 -1.03 Q 382.95 -1.58 382.95 -2.34 Z M 382.95 -29.24 L 382.95 -29.24 L 382.95 -32.86 L 386.49 -32.86 Q 386.92 -32.86 387.38 -32.47 Q 387.84 -32.08 387.84 -31.67 L 387.84 -31.67 L 387.84 -28.11 L 384.38 -28.11 Q 383.83 -28.11 383.39 -28.45 Q 382.95 -28.78 382.95 -29.24 Z M 393.76 -6.68 L 393.76 -6.68 L 393.76 -35.53 Q 394.15 -35.53 394.69 -35.47 Q 395.23 -35.41 396.28 -35.19 Q 397.32 -34.97 398.01 -34.38 Q 398.7 -33.78 398.7 -32.86 L 398.7 -32.86 L 398.7 -8.17 Q 398.7 -6.98 398.82 -5.92 Q 398.95 -4.87 399.26 -3.71 Q 399.57 -2.55 400.28 -1.86 Q 400.99 -1.17 402.02 -1.17 L 402.02 -1.17 Q 400.69 0.32 398.7 0.32 L 398.7 0.32 Q 396.29 0.32 395.02 -1.68 Q 393.76 -3.67 393.76 -6.68 Z M 417.24 -24.12 L 417.24 -24.12 Q 417.24 -26.3 417.92 -28 Q 418.59 -29.7 419.76 -30.8 Q 420.93 -31.9 422.63 -32.6 Q 424.33 -33.3 426.22 -33.6 Q 428.12 -33.9 430.37 -33.9 L 430.37 -33.9 Q 442.21 -33.9 442.21 -28.25 L 442.21 -28.25 Q 442.21 -26.37 440.83 -23.82 L 440.83 -23.82 L 440.83 -24.12 Q 440.83 -29.6 430.37 -29.6 L 430.37 -29.6 Q 426.9 -29.6 424.8 -28.4 Q 422.7 -27.19 422.7 -24.72 L 422.7 -24.72 Q 422.7 -23.41 423.41 -22.52 Q 424.12 -21.64 425.32 -21.17 Q 426.51 -20.7 428.05 -20.4 Q 429.59 -20.1 431.31 -19.84 Q 433.03 -19.58 434.74 -19.23 Q 436.45 -18.89 437.99 -18.2 Q 439.52 -17.51 440.72 -16.5 Q 441.91 -15.49 442.62 -13.75 Q 443.33 -12 443.33 -9.68 L 443.33 -9.68 Q 443.33 -6.36 441.61 -4.03 Q 439.89 -1.7 436.99 -0.59 Q 434.08 0.53 430.25 0.53 L 430.25 0.53 Q 427.91 0.53 425.88 0.25 Q 423.85 -0.02 422.02 -0.63 Q 420.2 -1.24 419.14 -2.4 Q 418.09 -3.56 418.09 -5.16 L 418.09 -5.16 Q 418.09 -7.05 419.49 -9.32 L 419.49 -9.32 Q 419.49 -3.72 430.25 -3.72 L 430.25 -3.72 Q 433.95 -3.72 435.91 -5.22 Q 437.87 -6.72 437.87 -9.36 L 437.87 -9.36 Q 437.87 -10.83 437.16 -11.85 Q 436.45 -12.87 435.25 -13.44 Q 434.06 -14 432.52 -14.37 Q 430.99 -14.73 429.28 -15 Q 427.57 -15.26 425.85 -15.59 Q 424.12 -15.93 422.59 -16.52 Q 421.05 -17.12 419.86 -18.03 Q 418.66 -18.93 417.95 -20.48 Q 417.24 -22.03 417.24 -24.12 Z M 448.01 -7.32 L 448.01 -7.32 L 448.01 -16.5 Q 448.01 -20.24 450.55 -22.32 Q 453.09 -24.4 457.79 -24.4 L 457.79 -24.4 Q 462.45 -24.4 464.91 -22.4 Q 467.36 -20.4 467.36 -16.96 L 467.36 -16.96 Q 467.36 -15.42 466.84 -14.16 Q 466.33 -12.9 465.24 -11.85 Q 464.15 -10.81 462.24 -10.22 Q 460.34 -9.64 457.75 -9.64 L 457.75 -9.64 Q 454.69 -9.64 452.95 -10.63 L 452.95 -10.63 L 452.95 -8.03 Q 452.95 -5.69 454.26 -4.57 Q 455.56 -3.44 458.48 -3.44 L 458.48 -3.44 Q 461.94 -3.44 464.13 -4.75 Q 466.31 -6.06 466.33 -8.31 L 466.33 -8.31 Q 467.66 -6.36 467.66 -4.75 Q 467.66 -3.14 466.41 -1.92 Q 465.16 -0.69 463.08 -0.06 Q 461 0.57 458.48 0.57 L 458.48 0.57 Q 453.57 0.57 450.79 -1.53 Q 448.01 -3.63 448.01 -7.32 Z M 452.95 -15.79 L 452.95 -14.3 Q 453.29 -14.16 454.66 -13.9 Q 456.02 -13.63 457.13 -13.63 L 457.13 -13.63 Q 459.97 -13.63 461.2 -14.47 Q 462.43 -15.31 462.43 -16.96 L 462.43 -16.96 Q 462.43 -20.63 457.7 -20.63 L 457.7 -20.63 Q 455.01 -20.63 453.98 -19.44 Q 452.95 -18.24 452.95 -15.79 L 452.95 -15.79 Z M 472.8 -2.39 L 472.8 -2.39 L 472.8 -24.26 Q 474.48 -23.41 476.04 -23.41 L 476.04 -23.41 Q 476.95 -23.41 479.05 -23.9 Q 481.15 -24.4 482.58 -24.4 L 482.58 -24.4 Q 485.22 -24.4 486.86 -23.37 Q 488.5 -22.35 488.5 -20.31 L 488.5 -20.31 Q 488.5 -19.51 488.14 -18.65 Q 487.79 -17.79 487.54 -17.42 Q 487.3 -17.05 486.75 -16.32 L 486.75 -16.32 Q 486.75 -18.29 485.33 -19.32 Q 483.91 -20.36 481.73 -20.36 L 481.73 -20.36 Q 480.83 -20.36 479.83 -20.18 Q 478.84 -20.01 478.28 -19.85 L 478.28 -19.85 L 477.73 -19.69 L 477.73 0.32 Q 477.53 0.32 477.19 0.31 Q 476.86 0.3 476.01 0.15 Q 475.16 0 474.51 -0.25 Q 473.86 -0.5 473.33 -1.07 Q 472.8 -1.63 472.8 -2.39 Z M 490.61 -14.94 L 489.67 -24.17 Q 489.85 -24.17 490.18 -24.15 Q 490.52 -24.14 491.34 -23.99 Q 492.17 -23.84 492.83 -23.6 Q 493.5 -23.36 494.07 -22.81 Q 494.65 -22.26 494.74 -21.53 L 494.74 -21.53 L 495.68 -14 Q 495.91 -12.12 496.48 -10.42 Q 497.06 -8.72 497.69 -7.63 Q 498.32 -6.54 498.95 -5.73 Q 499.58 -4.91 499.96 -4.54 Q 500.34 -4.18 500.38 -4.18 L 500.38 -4.18 Q 500.55 -4.31 500.81 -4.58 Q 501.07 -4.84 501.78 -5.76 Q 502.5 -6.68 503.07 -7.72 Q 503.64 -8.77 504.23 -10.46 Q 504.81 -12.16 505.04 -14 L 505.04 -14 L 505.98 -21.53 Q 506.08 -22.26 506.64 -22.81 Q 507.2 -23.36 507.94 -23.6 Q 508.67 -23.84 509.39 -23.99 Q 510.12 -24.14 510.62 -24.14 L 510.62 -24.14 L 511.1 -24.17 L 510.12 -14.94 Q 509.79 -11.91 508.67 -9.17 Q 507.54 -6.43 506.24 -4.68 Q 504.93 -2.94 503.53 -1.58 Q 502.13 -0.23 501.34 0.33 Q 500.55 0.9 500.38 0.94 L 500.38 0.94 Q 500.27 0.87 499.87 0.61 Q 499.47 0.34 498.61 -0.34 Q 497.75 -1.03 496.84 -1.92 Q 495.93 -2.8 494.89 -4.17 Q 493.84 -5.53 493 -7.07 Q 492.15 -8.61 491.49 -10.67 Q 490.84 -12.74 490.61 -14.94 L 490.61 -14.94 Z M 515.32 -2.34 L 515.32 -2.34 L 515.32 -24.17 Q 515.58 -24.17 515.92 -24.15 Q 516.27 -24.14 517.11 -23.99 Q 517.96 -23.84 518.59 -23.59 Q 519.23 -23.34 519.74 -22.79 Q 520.26 -22.24 520.26 -21.48 L 520.26 -21.48 L 520.26 0.32 Q 520.05 0.32 519.72 0.31 Q 519.39 0.3 518.54 0.15 Q 517.69 0 517.03 -0.24 Q 516.38 -0.48 515.85 -1.03 Q 515.32 -1.58 515.32 -2.34 Z M 515.32 -29.24 L 515.32 -29.24 L 515.32 -32.86 L 518.86 -32.86 Q 519.29 -32.86 519.75 -32.47 Q 520.21 -32.08 520.21 -31.67 L 520.21 -31.67 L 520.21 -28.11 L 516.75 -28.11 Q 516.2 -28.11 515.76 -28.45 Q 515.32 -28.78 515.32 -29.24 Z M 525.9 -7.32 L 525.9 -7.32 L 525.9 -16.5 Q 525.9 -20.2 528.6 -22.3 Q 531.3 -24.4 536.05 -24.4 L 536.05 -24.4 Q 537.61 -24.4 539.07 -24.1 Q 540.52 -23.8 541.8 -23.21 Q 543.07 -22.63 543.84 -21.61 Q 544.61 -20.59 544.61 -19.28 L 544.61 -19.28 Q 544.61 -17.49 543.05 -15.24 L 543.05 -15.24 Q 543.05 -16.52 542.51 -17.54 Q 541.97 -18.57 541.07 -19.19 Q 540.18 -19.81 539.08 -20.13 Q 537.98 -20.45 536.76 -20.45 L 536.76 -20.45 Q 533.75 -20.45 532.3 -19.3 Q 530.84 -18.15 530.84 -15.51 L 530.84 -15.51 L 530.84 -8.31 Q 530.84 -5.78 532.25 -4.58 Q 533.66 -3.37 536.67 -3.37 L 536.67 -3.37 Q 539.81 -3.37 541.9 -4.72 Q 543.99 -6.06 543.99 -8.26 L 543.99 -8.26 Q 545.3 -6.38 545.3 -4.7 L 545.3 -4.7 Q 545.3 -2.27 542.67 -0.85 Q 540.04 0.57 536.19 0.57 L 536.19 0.57 Q 531.41 0.57 528.66 -1.51 Q 525.9 -3.6 525.9 -7.32 Z M 549.54 -7.32 L 549.54 -7.32 L 549.54 -16.5 Q 549.54 -20.24 552.08 -22.32 Q 554.61 -24.4 559.32 -24.4 L 559.32 -24.4 Q 563.98 -24.4 566.43 -22.4 Q 568.89 -20.4 568.89 -16.96 L 568.89 -16.96 Q 568.89 -15.42 568.37 -14.16 Q 567.86 -12.9 566.77 -11.85 Q 565.68 -10.81 563.77 -10.22 Q 561.87 -9.64 559.27 -9.64 L 559.27 -9.64 Q 556.22 -9.64 554.48 -10.63 L 554.48 -10.63 L 554.48 -8.03 Q 554.48 -5.69 555.78 -4.57 Q 557.09 -3.44 560.01 -3.44 L 560.01 -3.44 Q 563.47 -3.44 565.65 -4.75 Q 567.83 -6.06 567.86 -8.31 L 567.86 -8.31 Q 569.19 -6.36 569.19 -4.75 Q 569.19 -3.14 567.94 -1.92 Q 566.69 -0.69 564.61 -0.06 Q 562.53 0.57 560.01 0.57 L 560.01 0.57 Q 555.1 0.57 552.32 -1.53 Q 549.54 -3.63 549.54 -7.32 Z M 554.48 -15.79 L 554.48 -14.3 Q 554.82 -14.16 556.19 -13.9 Q 557.55 -13.63 558.65 -13.63 L 558.65 -13.63 Q 561.5 -13.63 562.73 -14.47 Q 563.95 -15.31 563.95 -16.96 L 563.95 -16.96 Q 563.95 -20.63 559.23 -20.63 L 559.23 -20.63 Q 556.54 -20.63 555.51 -19.44 Q 554.48 -18.24 554.48 -15.79 L 554.48 -15.79 Z M 572.93 -16.87 L 572.93 -16.87 Q 572.93 -20.63 575.44 -22.56 Q 577.95 -24.49 582.8 -24.49 L 582.8 -24.49 Q 586.97 -24.49 589.42 -23.32 Q 591.86 -22.15 591.86 -19.83 L 591.86 -19.83 Q 591.86 -18.02 590.25 -15.79 L 590.25 -15.79 Q 590.25 -18.02 588.3 -19.21 Q 586.35 -20.4 583.02 -20.4 L 583.02 -20.4 Q 580.27 -20.4 579.11 -19.6 Q 577.95 -18.8 577.95 -17.01 L 577.95 -17.01 Q 577.95 -16.23 578.47 -15.73 Q 578.99 -15.24 579.86 -15.01 Q 580.73 -14.78 581.87 -14.64 Q 583 -14.5 584.25 -14.37 Q 585.5 -14.23 586.74 -14.01 Q 587.98 -13.79 589.12 -13.29 Q 590.25 -12.78 591.13 -12.01 Q 592 -11.25 592.51 -9.91 Q 593.03 -8.58 593.03 -6.82 L 593.03 -6.82 Q 593.03 -3.33 590.45 -1.38 Q 587.87 0.57 582.8 0.57 L 582.8 0.57 Q 578.46 0.57 575.83 -0.68 Q 573.2 -1.93 573.2 -4.31 L 573.2 -4.31 Q 573.2 -6.17 575.04 -8.42 L 575.04 -8.42 Q 575.08 -6.66 576.2 -5.5 Q 577.31 -4.34 578.96 -3.89 Q 580.62 -3.44 582.8 -3.44 L 582.8 -3.44 Q 585.11 -3.44 586.56 -4.36 Q 588 -5.28 588 -7.05 L 588 -7.05 Q 588 -7.99 587.49 -8.59 Q 586.97 -9.2 586.1 -9.5 Q 585.23 -9.8 584.09 -9.96 Q 582.96 -10.12 581.71 -10.25 Q 580.45 -10.37 579.22 -10.56 Q 577.98 -10.74 576.84 -11.16 Q 575.7 -11.59 574.83 -12.24 Q 573.96 -12.9 573.44 -14.08 Q 572.93 -15.26 572.93 -16.87 Z" stroke-linecap="round" />
</g>
</svg>